<?xml version="1.0" encoding="UTF-8"?>
<svg width="160px" height="82px" viewBox="0 0 160 82" version="1.1" xmlns="http://www.w3.org/2000/svg" xmlns:xlink="http://www.w3.org/1999/xlink">
    <!-- Generator: Sketch 56.2 (81672) - https://sketch.com -->
    <title>356Logo</title>
    <desc>Created with Sketch.</desc>
    <defs>
        <path d="M11.6558234,4.56142914 C14.918111,4.56142914 17.6423068,5.70547811 19.8284926,7.99361038 C22.0146784,10.2817426 23.1077549,13.1022198 23.1077549,16.4551265 C23.1077549,19.8080332 22.0146784,22.6285104 19.8284926,24.9166426 C17.6423068,27.2047749 14.918111,28.3488239 11.6558234,28.3488239 L2.20882951,28.3488239 L2.20882951,4.56142914 L11.6558234,4.56142914 Z M11.6558234,23.8632009 C13.7174079,23.8632009 15.3938361,23.1779042 16.6851583,21.8072903 C17.9764805,20.4366764 18.6221319,18.6526397 18.6221319,16.4551265 C18.6221319,14.2576133 17.9764805,12.4735766 16.6851583,11.1029627 C15.3938361,9.7323488 13.7174079,9.04705214 11.6558234,9.04705214 L6.89834447,9.04705214 L6.89834447,23.8632009 L11.6558234,23.8632009 Z M39.4870752,28.3488239 L34.6956143,20.0911997 L31.1275051,20.0911997 L31.1275051,28.3488239 L26.4379901,28.3488239 L26.4379901,4.56142914 L35.952948,4.56142914 C38.1504612,4.56142914 40.0194521,5.33167993 41.5599768,6.87220462 C43.1005015,8.41272932 43.8707523,10.270393 43.8707523,12.4452514 C43.8707523,13.9178118 43.4516452,15.2827415 42.6134186,16.5400815 C41.7751919,17.7974215 40.6651246,18.7432442 39.2831833,19.3775779 L44.5503921,28.3488239 L39.4870752,28.3488239 Z M31.1275051,8.94510616 L31.1275051,15.9793786 L35.952948,15.9793786 C36.8364843,15.9793786 37.5954078,15.6338985 38.2297415,14.9429278 C38.8640752,14.2519572 39.1812373,13.4194067 39.1812373,12.4452514 C39.1812373,11.4710961 38.8640752,10.6442092 38.2297415,9.96456594 C37.5954078,9.28492269 36.8364843,8.94510616 35.952948,8.94510616 L31.1275051,8.94510616 Z M67.0464711,25.2564625 C64.645065,27.6352139 61.7226429,28.8245718 58.2791171,28.8245718 C54.8355913,28.8245718 51.9188328,27.6295503 49.528754,25.2394716 C47.1386753,22.8493928 45.9436538,19.9213071 45.9436538,16.4551265 C45.9436538,12.9889459 47.1386753,10.0608602 49.528754,7.67078145 C51.9188328,5.28070269 54.8355913,4.08568124 58.2791171,4.08568124 C61.7226429,4.08568124 64.645065,5.28070269 67.0464711,7.67078145 C69.4478773,10.0608602 70.6485623,12.9889459 70.6485623,16.4551265 C70.6485623,19.9213071 69.4478773,22.8550564 67.0464711,25.2564625 Z M52.8080163,22.0621553 C54.2805767,23.5120609 56.1042587,24.2370028 58.2791171,24.2370028 C60.4539755,24.2370028 62.2776575,23.5063972 63.7502179,22.0451643 C65.2227782,20.5839313 65.9590474,18.720604 65.9590474,16.4551265 C65.9590474,14.189649 65.2227782,12.3206581 63.7502179,10.8480977 C62.2776575,9.37553737 60.4539755,8.63926823 58.2791171,8.63926823 C56.1042587,8.63926823 54.2805767,9.37553737 52.8080163,10.8480977 C51.3354559,12.3206581 50.5991868,14.189649 50.5991868,16.4551265 C50.5991868,18.720604 51.3354559,20.5895949 52.8080163,22.0621553 Z M82.8141156,4.56142914 C85.1022479,4.56142914 87.0278749,5.33167993 88.5910544,6.87220462 C90.1542338,8.41272932 90.9358118,10.3043746 90.9358118,12.5471974 C90.9358118,14.7900201 90.1542338,16.6816654 88.5910544,18.2221901 C87.0278749,19.7627148 85.1022479,20.5329656 82.8141156,20.5329656 L78.6343306,20.5329656 L78.6343306,28.3488239 L73.9448156,28.3488239 L73.9448156,4.56142914 L82.8141156,4.56142914 Z M82.8141156,16.1492886 C83.8109257,16.1492886 84.6378126,15.8038084 85.2948011,15.1128378 C85.9517896,14.4218672 86.2802789,13.5666622 86.2802789,12.5471974 C86.2802789,11.5050777 85.9517896,10.6442092 85.2948011,9.96456594 C84.6378126,9.28492269 83.8109257,8.94510616 82.8141156,8.94510616 L78.6343306,8.94510616 L78.6343306,16.1492886 L82.8141156,16.1492886 Z M101.436248,28.8245718 C99.0801509,28.8245718 97.0978879,28.2978561 95.4893988,27.2444091 C93.8809098,26.1909621 92.7481881,24.7580691 92.0911996,22.9456871 L96.1010747,20.6009296 C97.0299205,23.0249905 98.8536025,24.2370028 101.572175,24.2370028 C102.886152,24.2370028 103.848966,23.9991312 104.460645,23.5233809 C105.072324,23.0476307 105.378159,22.4472881 105.378159,21.7223353 C105.378159,20.8841087 105.00436,20.2327937 104.256753,19.7683708 C103.509145,19.3039479 102.172534,18.7998867 100.246878,18.2561721 C99.1821034,17.9390053 98.2815896,17.6218432 97.5453094,17.3046763 C96.8090292,16.9875095 96.0727601,16.5627388 95.3364799,16.0303516 C94.6001997,15.4979644 94.0395024,14.8239949 93.6543712,14.008423 C93.2692401,13.1928511 93.0766774,12.2413649 93.0766774,11.1539357 C93.0766774,9.00173206 93.8412646,7.2856586 95.3704619,6.00566382 C96.8996592,4.72566903 98.740332,4.08568124 100.892536,4.08568124 C102.818192,4.08568124 104.511611,4.55576077 105.972844,5.49593393 C107.434076,6.43610709 108.572462,7.74440071 109.388034,9.42085406 L105.446123,11.6976476 C104.494622,9.65871781 102.976775,8.63926823 100.892536,8.63926823 C99.9183803,8.63926823 99.1537931,8.86014897 98.5987511,9.30191709 C98.0437092,9.7436852 97.7661923,10.3157097 97.7661923,11.0180077 C97.7661923,11.7656153 98.0776908,12.3716214 98.7006971,12.8360443 C99.3237034,13.3004672 100.518725,13.8045284 102.285797,14.348243 C103.01075,14.5747907 103.56012,14.7503626 103.933924,14.8749639 C104.307728,14.9995651 104.817453,15.1921278 105.463114,15.4526577 C106.108775,15.7131876 106.607172,15.9567228 106.958321,16.1832706 C107.30947,16.4098183 107.711587,16.7156532 108.164682,17.1007844 C108.617778,17.4859155 108.963258,17.8823681 109.201133,18.2901541 C109.439008,18.69794 109.642898,19.190674 109.812809,19.7683708 C109.982719,20.3460675 110.067674,20.9747281 110.067674,21.6543713 C110.067674,23.8518845 109.269105,25.596276 107.671943,26.8875982 C106.074782,28.1789204 103.996237,28.8245718 101.436248,28.8245718 Z M126.480976,4.56142914 L131.136509,4.56142914 L131.136509,28.3488239 L126.480976,28.3488239 L126.480976,18.494046 L117.645658,18.494046 L117.645658,28.3488239 L112.956143,28.3488239 L112.956143,4.56142914 L117.645658,4.56142914 L117.645658,14.008423 L126.480976,14.008423 L126.480976,4.56142914 Z M135.554168,4.56142914 L140.243683,4.56142914 L140.243683,28.3488239 L135.554168,28.3488239 L135.554168,4.56142914 Z M153.530642,4.56142914 C155.818774,4.56142914 157.744401,5.33167993 159.307581,6.87220462 C160.87076,8.41272932 161.652338,10.3043746 161.652338,12.5471974 C161.652338,14.7900201 160.87076,16.6816654 159.307581,18.2221901 C157.744401,19.7627148 155.818774,20.5329656 153.530642,20.5329656 L149.350857,20.5329656 L149.350857,28.3488239 L144.661342,28.3488239 L144.661342,4.56142914 L153.530642,4.56142914 Z M153.530642,16.1492886 C154.527452,16.1492886 155.354339,15.8038084 156.011327,15.1128378 C156.668316,14.4218672 156.996805,13.5666622 156.996805,12.5471974 C156.996805,11.5050777 156.668316,10.6442092 156.011327,9.96456594 C155.354339,9.28492269 154.527452,8.94510616 153.530642,8.94510616 L149.350857,8.94510616 L149.350857,16.1492886 L153.530642,16.1492886 Z" id="path-1"></path>
    </defs>
    <g id="Page-1" stroke="none" stroke-width="1" fill="none" fill-rule="evenodd">
        <g id="365-Landing-Page-slide-1" transform="translate(-884.000000, -239.000000)" fill-rule="nonzero">
            <g id="356Logo" transform="translate(882.000000, 239.000000)">
                <path d="M44.3334301,-1.03828057e-12 L44.3334301,5.22799883 L26.6627941,30.4269532 C32.79701,31.0543162 37.8506917,33.2500538 41.8239908,37.0142318 C45.6180365,40.608591 47.6006155,45.3469488 47.7717791,51.2294363 L42.221214,51.2304545 L42.2187627,51.0531472 C41.999731,46.368844 40.2474751,42.5954254 36.9619518,39.7327912 C33.4417483,36.6656832 28.9282878,35.1321522 23.4214348,35.1321522 L23.4214348,35.0275922 L23.3168748,35.1321522 L21.8530352,35.1321522 L19.4481557,31.472553 L37.9552716,5.22799883 L2.19575951,5.22799883 L2.19575951,-1.03828057e-12 L44.3334301,-1.03828057e-12 Z M91.4899799,-1.03828057e-12 L72.7737439,27.2901539 C75.42261,26.5233769 78.071436,26.1399942 80.7203021,26.1399942 C87.9001229,26.1399942 93.790276,28.3880112 98.3909381,32.8841127 C102.9916,37.3802142 105.291897,43.183235 105.291897,50.2933488 L105.270305,51.2304545 L99.7328463,51.2355854 C99.7444272,50.9248653 99.7502179,50.6107865 99.7502179,50.2933488 C99.7502179,44.7167888 98.0075692,40.1859018 94.522219,36.7005519 C91.0368691,33.2152019 86.4362761,31.472553 80.7203021,31.472553 C75.004328,31.472553 70.4211615,33.2152019 66.970665,36.7005519 C63.5201685,40.1859018 61.7949462,44.7167888 61.7949462,50.2933488 L61.8125776,51.2304545 L56.1626497,51.2349987 C56.1533547,50.9236859 56.1487075,50.6098027 56.1487075,50.2933488 C56.1487075,44.7864959 57.6473854,39.9070791 60.6447867,35.6549521 L85.216381,-1.03828057e-12 L91.4899799,-1.03828057e-12 Z M158.303805,-1.03828057e-12 L158.303805,5.22799883 L124.530932,5.22799883 L122.857973,29.7995934 L136.65989,29.7995934 C143.491176,29.7995934 149.259344,31.8036395 153.964566,35.811792 C158.474807,39.6538497 160.823346,44.7928347 161.010245,51.2288906 L155.457578,51.2304545 L155.457218,51.0531472 C155.238186,46.368844 153.48593,42.5954254 150.200407,39.7327912 C146.680203,36.6656832 142.166743,35.1321522 136.65989,35.1321522 L117.107174,35.1321522 L119.616613,-1.03828057e-12 L158.303805,-1.03828057e-12 Z" id="Combined-Shape-Copy" fill="#61D5DF"></path>
                <g id="DROPSHIP-Copy-2" transform="translate(0.000000, 53.181818)">
                    <g id="DROPSHIP">
                        <use fill="#000000" xlink:href="#path-1"></use>
                        <use fill="#FFFFFF" xlink:href="#path-1"></use>
                    </g>
                </g>
            </g>
        </g>
    </g>
</svg>